<svg width="415" height="707" viewBox="0 0 415 707" fill="none" xmlns="http://www.w3.org/2000/svg">
<path d="M256.463 340.105C162.456 312.104 143.456 372.604 85.4558 293.104C71.959 274.605 54.9635 263.305 18.9635 268.105C-26.0365 274.105 -34.487 320.03 -7.53677 351.605C9.96098 372.105 70.9558 371.105 38.9595 431.105C29.4863 448.869 -43.2245 416.605 -17.5368 453.605C36.9628 532.105 -7.53677 523.705 -7.53677 598.105C-7.53677 695.605 117.063 662.605 121.463 648.605C126.963 631.105 201.956 558.605 201.956 659.105C201.956 759.605 279.956 682.105 269.956 587.605C259.879 492.382 389.963 642.605 414.963 556.605C414.797 519.605 340.356 438.805 261.956 423.605C371.956 427.105 342.33 365.68 256.463 340.105Z" fill="#F0F0FF"/>
<path d="M221.475 281.615C236.966 184.757 174.503 173.816 245.753 105.936C262.332 90.1395 271.317 71.8144 261.859 36.7489C250.037 -7.08291 203.401 -9.46662 175.615 21.3743C157.574 41.3981 166.527 101.741 102.864 77.8496C84.0153 70.7762 106.513 -5.52387 73.1822 24.7735C2.46738 89.0531 4.98706 43.8379 -68.7764 53.549C-165.442 66.2753 -116.461 185.502 -102.007 188.037C-83.9383 191.206 -2.2703 256.094 -101.911 269.211C-201.551 282.329 -114.533 349.546 -22.1464 327.297C70.9469 304.878 -61.0116 453.457 27.5158 467.018C64.1775 462.023 134.57 377.673 139.406 297.959C150.294 407.475 207.326 370.085 221.475 281.615Z" fill="#BEFAE1"/>
</svg>
