<svg width="370" height="707" viewBox="0 0 370 707" fill="none" xmlns="http://www.w3.org/2000/svg">
<path d="M158.772 366.895C252.78 394.896 271.78 334.396 329.78 413.896C343.276 432.395 360.272 443.695 396.272 438.895C441.272 432.895 449.722 386.97 422.772 355.395C405.274 334.895 344.28 335.895 376.276 275.895C385.749 258.131 458.46 290.395 432.772 253.395C378.273 174.895 422.772 183.295 422.772 108.895C422.772 11.3952 298.172 44.3952 293.772 58.3952C288.272 75.8952 213.28 148.395 213.28 47.895C213.28 -52.605 135.28 24.895 145.28 119.395C155.356 214.618 25.2722 64.3952 0.272156 150.395C0.438812 187.395 74.8795 268.195 153.28 283.395C43.2795 279.895 72.9055 341.32 158.772 366.895Z" fill="#BEFAE1"/>
<path d="M193.76 425.385C178.27 522.243 240.732 533.184 169.483 601.064C152.903 616.861 143.918 635.186 153.376 670.251C165.198 714.083 211.834 716.467 239.621 685.626C257.661 665.602 248.708 605.259 312.371 629.15C331.22 636.224 308.723 712.524 342.053 682.226C412.768 617.947 410.248 663.162 484.012 653.451C580.678 640.725 531.696 521.498 517.242 518.963C499.174 515.794 417.506 450.906 517.146 437.789C616.786 424.671 529.768 357.454 437.382 379.703C344.288 402.122 476.247 253.543 387.72 239.982C351.058 244.977 280.666 329.327 275.829 409.041C264.941 299.525 207.909 336.915 193.76 425.385Z" fill="#BFABFF"/>
</svg>
