<svg width="759" height="923" viewBox="0 0 759 923" fill="none" xmlns="http://www.w3.org/2000/svg">
<path d="M392.105 515.537C364.105 609.544 424.605 628.544 345.105 686.544C326.605 700.041 315.305 717.036 320.105 753.036C326.105 798.036 372.031 806.487 403.605 779.537C424.105 762.039 423.105 701.044 483.105 733.04C500.869 742.513 468.605 815.224 505.605 789.537C584.105 735.037 575.705 779.537 650.105 779.537C747.605 779.537 714.605 654.936 700.605 650.536C683.105 645.036 610.605 570.044 711.105 570.044C811.605 570.044 734.105 492.044 639.605 502.044C544.382 512.12 694.605 382.037 608.605 357.037C571.605 357.203 490.805 431.644 475.605 510.044C479.105 400.044 417.681 429.67 392.105 515.537Z" fill="#FAB4FF"/>
<path d="M48.8881 334.036C17.9066 532.155 84.848 572.197 -3.1163 694.431C-23.5853 722.875 -36.0887 758.693 -30.7776 834.562C-24.1387 929.399 26.6765 947.208 61.6124 890.411C84.2951 853.535 83.1886 724.989 149.577 792.421C169.232 812.385 133.533 965.622 174.472 911.486C261.33 796.629 252.036 890.411 334.357 890.411C442.238 890.411 405.724 627.819 390.234 618.546C370.871 606.955 290.652 448.909 401.852 448.909C513.052 448.909 427.301 284.526 322.739 305.6C217.378 326.836 383.595 52.687 288.439 -6.10352e-05C247.499 0.351196 158.097 157.234 141.279 322.46C145.151 90.6373 77.1868 153.073 48.8881 334.036Z" fill="#FACDCD"/>
<path d="M-21.9701 618.321C72.7381 643.85 90.1478 582.874 150.209 660.828C164.186 678.968 181.471 689.82 217.333 684.079C262.161 676.903 269.406 630.772 241.638 599.914C223.61 579.879 162.662 582.475 193.077 521.658C202.082 503.652 275.612 534.002 248.965 497.687C192.429 420.641 237.133 427.873 235.186 353.498C232.634 256.032 108.94 292.282 104.908 306.392C99.868 324.03 26.799 398.468 24.1682 298.003C21.5374 197.537 -54.4072 277.052 -41.9369 371.258C-29.3711 466.185 -163.343 319.419 -186.083 406.044C-184.948 443.027 -108.418 521.85 -29.6466 534.993C-139.701 534.373 -108.477 595.001 -21.9701 618.321Z" fill="#00C8AF"/>
</svg>
