<svg width="713" height="1052" viewBox="0 0 713 1052" fill="none" xmlns="http://www.w3.org/2000/svg">
<path d="M366.13 279.463C394.13 185.456 333.63 166.456 413.13 108.456C431.63 94.9592 442.93 77.9637 438.13 41.9637C432.13 -3.03625 386.204 -11.4867 354.63 15.4635C334.13 32.9612 335.13 93.9561 275.13 61.9597C257.366 52.4866 289.63 -20.2242 252.63 5.46347C174.13 59.963 182.53 15.4635 108.13 15.4635C10.6299 15.4635 43.6299 140.064 57.6299 144.464C75.1299 149.964 147.63 224.956 47.1296 224.956C-53.3704 224.956 24.1296 302.956 118.63 292.956C213.853 282.88 63.6299 412.963 149.63 437.963C186.63 437.797 267.43 363.356 282.63 284.956C279.13 394.956 340.554 365.33 366.13 279.463Z" fill="#FEEE85"/>
<path d="M681.347 717.964C712.328 519.845 645.387 479.803 733.351 357.569C753.82 329.125 766.323 293.307 761.012 217.438C754.373 122.601 703.558 104.792 668.622 161.589C645.94 198.465 647.046 327.011 580.658 259.579C561.002 239.615 596.702 86.3778 555.762 140.514C468.905 255.371 478.199 161.589 395.877 161.589C287.997 161.589 324.51 424.181 340.001 433.454C359.364 445.045 439.583 603.091 328.383 603.091C217.182 603.091 302.934 767.474 407.495 746.4C512.857 725.164 346.64 999.313 441.796 1052C482.735 1051.65 572.138 894.766 588.956 729.54C585.083 961.363 653.048 898.927 681.347 717.964Z" fill="#BFABFF"/>
<path d="M768.205 170.229C673.497 144.699 656.087 205.676 596.026 127.721C582.049 109.581 564.764 98.73 528.902 104.471C484.074 111.647 476.829 157.778 504.596 188.636C522.625 208.671 583.573 206.074 553.158 266.891C544.153 284.897 470.622 254.548 497.27 290.863C553.806 367.909 509.102 360.677 511.049 435.051C513.601 532.518 637.295 496.268 641.327 482.157C646.367 464.519 719.436 390.081 722.067 490.547C724.697 591.012 800.642 511.497 788.172 417.291C775.606 322.364 909.578 469.131 932.318 382.506C931.183 345.523 854.652 266.699 775.881 253.557C885.935 254.176 854.712 193.548 768.205 170.229Z" fill="#FACDCD"/>
</svg>
