<svg width="58" height="19" viewBox="0 0 58 19" fill="none" xmlns="http://www.w3.org/2000/svg">
<path d="M5.34 14.46C3.76667 14.46 2.5 14.0267 1.54 13.16C0.593334 12.2933 0.08 11.1267 0 9.66H2.02C2.1 10.58 2.42667 11.3067 3 11.84C3.58667 12.36 4.36667 12.62 5.34 12.62C6.26 12.62 6.99333 12.44 7.54 12.08C8.1 11.7067 8.38 11.1533 8.38 10.42C8.38 9.9 8.18 9.47333 7.78 9.14C7.39334 8.79333 6.90667 8.54667 6.32 8.4C5.73333 8.24 5.09334 8.05333 4.4 7.84C3.72 7.62667 3.08667 7.4 2.5 7.16C1.91333 6.90667 1.42 6.50667 1.02 5.96C0.633334 5.4 0.440002 4.72 0.440002 3.92C0.440002 2.8 0.880002 1.89333 1.76 1.2C2.65334 0.493334 3.80667 0.140001 5.22 0.140001C6.64667 0.140001 7.81333 0.526668 8.72 1.3C9.62667 2.06 10.1267 3.08 10.22 4.36H8.2C8.13333 3.64 7.83333 3.06667 7.3 2.64C6.76667 2.2 6.07333 1.98 5.22 1.98C4.38 1.98 3.72 2.16 3.24 2.52C2.76 2.86667 2.52 3.33333 2.52 3.92C2.52 4.37333 2.66667 4.75333 2.96 5.06C3.25333 5.36667 3.63334 5.6 4.1 5.76C4.56667 5.92 5.08667 6.06667 5.66 6.2C6.23333 6.33333 6.8 6.49333 7.36 6.68C7.93333 6.86667 8.45334 7.1 8.92 7.38C9.38667 7.64667 9.76667 8.04 10.06 8.56C10.3533 9.06667 10.5 9.68 10.5 10.4C10.5 11.6533 10.02 12.6467 9.06 13.38C8.11333 14.1 6.87333 14.46 5.34 14.46Z" fill="black"/>
<path d="M20.1011 4.22L16.5611 13.94L15.0411 18.38H13.1811L14.5411 14.4L10.8011 4.22H12.8011L15.4411 11.78L18.1011 4.22H20.1011Z" fill="black"/>
<path d="M21.2672 18.38V4.22H23.2072V5.72C23.5139 5.21333 23.9539 4.81333 24.5272 4.52C25.1005 4.21333 25.7339 4.06 26.4272 4.06C27.9205 4.06 29.0872 4.54667 29.9272 5.52C30.7805 6.48 31.2072 7.72667 31.2072 9.26C31.2072 10.7933 30.7672 12.0467 29.8872 13.02C29.0205 13.98 27.8339 14.46 26.3272 14.46C25.6605 14.46 25.0472 14.32 24.4872 14.04C23.9272 13.7467 23.5005 13.36 23.2072 12.88V18.38H21.2672ZM23.8872 11.8C24.4605 12.44 25.2139 12.76 26.1472 12.76C27.0805 12.76 27.8272 12.44 28.3872 11.8C28.9605 11.16 29.2472 10.3133 29.2472 9.26C29.2472 8.20667 28.9605 7.36 28.3872 6.72C27.8272 6.08 27.0805 5.76 26.1472 5.76C25.2139 5.76 24.4605 6.08 23.8872 6.72C23.3272 7.36 23.0472 8.20667 23.0472 9.26C23.0472 10.3133 23.3272 11.16 23.8872 11.8Z" fill="black"/>
<path d="M41.0408 13C40.0675 13.9733 38.8275 14.46 37.3208 14.46C35.8141 14.46 34.5675 13.9733 33.5808 13C32.6075 12.0133 32.1208 10.7667 32.1208 9.26C32.1208 7.75333 32.6075 6.51333 33.5808 5.54C34.5675 4.55333 35.8141 4.06 37.3208 4.06C38.8275 4.06 40.0675 4.55333 41.0408 5.54C42.0141 6.51333 42.5008 7.75333 42.5008 9.26C42.5008 10.7667 42.0141 12.0133 41.0408 13ZM37.3208 12.76C38.2675 12.76 39.0341 12.4333 39.6208 11.78C40.2208 11.1267 40.5208 10.2867 40.5208 9.26C40.5208 8.23333 40.2208 7.39333 39.6208 6.74C39.0341 6.08667 38.2675 5.76 37.3208 5.76C36.3608 5.76 35.5808 6.08667 34.9808 6.74C34.3941 7.39333 34.1008 8.23333 34.1008 9.26C34.1008 10.2867 34.3941 11.1267 34.9808 11.78C35.5808 12.4333 36.3608 12.76 37.3208 12.76Z" fill="black"/>
<path d="M52.34 13C51.3667 13.9733 50.1267 14.46 48.62 14.46C47.1133 14.46 45.8667 13.9733 44.88 13C43.9067 12.0133 43.42 10.7667 43.42 9.26C43.42 7.75333 43.9067 6.51333 44.88 5.54C45.8667 4.55333 47.1133 4.06 48.62 4.06C50.1267 4.06 51.3667 4.55333 52.34 5.54C53.3133 6.51333 53.8 7.75333 53.8 9.26C53.8 10.7667 53.3133 12.0133 52.34 13ZM48.62 12.76C49.5667 12.76 50.3333 12.4333 50.92 11.78C51.52 11.1267 51.82 10.2867 51.82 9.26C51.82 8.23333 51.52 7.39333 50.92 6.74C50.3333 6.08667 49.5667 5.76 48.62 5.76C47.66 5.76 46.88 6.08667 46.28 6.74C45.6933 7.39333 45.4 8.23333 45.4 9.26C45.4 10.2867 45.6933 11.1267 46.28 11.78C46.88 12.4333 47.66 12.76 48.62 12.76Z" fill="black"/>
<path d="M55.3992 14.3V0H57.3392V14.3H55.3992Z" fill="black"/>
</svg>
