<svg width="612" height="960" viewBox="0 0 612 960" fill="none" xmlns="http://www.w3.org/2000/svg">
<path fill-rule="evenodd" clip-rule="evenodd" d="M553.129 394.553L546.214 438.428C541.599 440.225 536.152 442.351 530.058 444.742C510.417 452.448 483.995 462.918 456.948 473.947C429.965 484.951 402.084 496.625 379.628 506.714C368.436 511.743 358.234 516.538 350.026 520.766C343.327 524.217 339.452 528.649 334.38 535.254C329.787 541.236 326.582 548.819 324.975 552.623L324.816 552.997L324.715 553.237C322.688 558.01 320.972 563.306 319.495 568.517C316.515 579.03 313.68 592.18 311.027 606.56C305.689 635.495 300.589 672.174 296.428 708.787C292.262 745.446 288.967 782.656 287.316 812.745C286.493 827.744 286.056 841.383 286.167 852.481C286.222 858.012 286.416 863.318 286.834 868.06C287.198 872.18 287.905 878.219 289.833 884.003C295.099 899.803 302.639 917.466 314.233 931.735C318.858 937.428 322.389 942.102 325.253 945.895C333.044 956.211 335.906 960 342.468 960C351.442 960 374.577 958.216 381.067 955.197C385.594 953.092 389.836 950.475 393.517 947.964C400.912 942.921 408.923 936.317 416.857 929.269C432.87 915.044 451.534 896.346 469.413 877.719C487.407 858.972 505.133 839.742 519.334 824.239C520.904 822.525 522.419 820.87 523.878 819.275C525.272 817.752 526.615 816.284 527.904 814.875C537.928 803.916 544.736 796.474 547.606 793.604C554.227 786.982 557.517 778.754 558.791 775.529C560.651 770.822 562.294 765.505 563.758 760.168C566.714 749.395 569.69 735.75 572.599 720.748C578.448 690.587 584.507 652.431 589.954 615.284C595.417 578.037 600.326 541.384 603.866 514.072C605.638 500.408 607.069 489.062 608.058 481.127C608.552 477.158 608.937 474.042 609.198 471.912L609.599 468.622L611.514 408.879L611.573 408.806L611.554 407.643L611.573 407.05L611.544 407.065L610.931 369.528H610.998C610.998 167.003 450.039 0 247.972 0C46.644 0 -113.875 165.782 -115.048 367.305L-115.969 407.066L-116 407.05L-115.982 407.615L-116 408.399L-115.955 408.455L-114.027 468.622L-113.625 471.912C-113.364 474.042 -112.98 477.158 -112.485 481.127C-111.496 489.062 -110.065 500.408 -108.294 514.072C-104.753 541.384 -99.8438 578.037 -94.3816 615.284C-88.9339 652.431 -82.8758 690.587 -77.0265 720.748C-74.117 735.75 -71.1414 749.395 -68.1858 760.168C-66.7216 765.505 -65.0782 770.822 -63.2186 775.529C-61.9448 778.754 -58.6543 786.982 -52.033 793.604C-49.1631 796.474 -42.3554 803.916 -32.3312 814.875L-32.3074 814.901C-29.6757 817.778 -26.8227 820.897 -23.7612 824.239C-9.5602 839.742 8.16548 858.972 26.1592 877.719C44.0384 896.346 62.7026 915.044 78.7161 929.269C86.6501 936.317 94.6607 942.921 102.055 947.964C105.737 950.475 109.979 953.092 114.506 955.197C120.996 958.216 147.016 960 153.105 960C158.043 960 161.633 955.632 172.473 942.446C174.998 939.373 177.918 935.821 181.34 931.735C193.142 917.639 200.473 899.803 205.74 884.003C207.668 878.219 208.375 872.18 208.738 868.06C209.156 863.318 209.351 858.012 209.406 852.481C209.517 841.383 209.079 827.744 208.256 812.745C206.606 782.656 203.311 745.446 199.145 708.787C194.984 672.174 189.884 635.495 184.545 606.56C181.893 592.18 179.057 579.03 176.077 568.517C174.601 563.306 172.885 558.01 170.858 553.237C170.61 552.652 170.32 551.922 169.987 551.08C168.298 546.819 165.481 539.712 161.178 534.26C156.181 527.93 152.246 524.217 145.546 520.766C137.339 516.538 127.137 511.743 115.944 506.714C93.4886 496.625 65.6074 484.951 38.6243 473.947C11.5778 462.918 -14.8442 452.448 -34.4854 444.742C-40.4528 442.401 -45.7992 440.313 -50.3527 438.54L-57.312 394.381L188.986 417.965C226.629 421.57 264.528 421.607 302.179 418.078L553.129 394.553ZM247.972 61.531C97.0542 61.531 -23.0085 166.494 -46.7459 315.02C19.7827 339.622 284.445 390.317 542.588 314.391C518.612 166.198 398.676 61.531 247.972 61.531ZM-36.1593 530.072C-33.1409 552.729 -29.5483 578.842 -25.6817 605.209C-20.2801 642.042 -14.4042 678.95 -8.86185 707.528C-6.07558 721.895 -3.49092 733.54 -1.22539 741.797C-0.992691 742.646 -0.770889 743.43 -0.560471 744.154C0.240425 746.908 1.75819 749.382 3.71281 751.481C8.02444 756.11 13.574 762.18 19.7928 768.981L20.0979 769.315C22.4606 771.899 24.9177 774.586 27.4388 777.338C41.5617 792.755 58.8414 811.497 76.2529 829.638C93.7788 847.897 110.919 865.002 124.829 877.357C127.626 879.842 130.178 882.032 132.48 883.933C135.01 886.024 138.715 885.508 140.01 882.492C141.239 879.626 142.349 876.124 143.672 871.953L143.674 871.943C144.498 869.343 145.405 866.483 146.474 863.355C146.514 863.035 146.565 862.577 146.619 861.961C146.822 859.66 146.977 856.302 147.022 851.787C147.112 842.792 146.755 830.805 145.973 816.549C144.414 788.127 141.256 752.304 137.202 716.628C135.184 698.877 132.382 681.314 129.755 664.849C127.096 648.18 124.615 632.635 123.311 619.158C120.823 605.674 118.444 594.941 116.322 587.451C115.813 585.659 114.587 584.16 112.939 583.293C112.458 583.04 111.946 582.773 111.402 582.493C109.231 581.375 107.063 580.169 104.754 578.884C100.019 576.251 94.685 573.284 87.4868 570.049C66.1372 560.457 39.1331 549.141 12.4049 538.241C-1.59509 532.532 -15.4435 526.967 -28.258 521.864C-32.072 520.345 -36.084 523.008 -36.4362 526.847L-35.8346 530.665L-36.1593 530.072ZM1.79601 751.003C1.79601 751.003 1.69108 750.826 1.5024 750.371C1.70522 750.759 1.79601 751.003 1.79601 751.003ZM531.979 528.214C532.582 523.676 528.083 520.17 523.831 521.864C511.016 526.967 497.168 532.532 483.168 538.241C456.44 549.141 429.435 560.457 408.086 570.049C400.888 573.284 395.554 576.251 390.819 578.884C388.509 580.169 386.342 581.375 384.17 582.493C383.627 582.773 383.115 583.04 382.634 583.293C380.985 584.16 379.759 585.659 379.251 587.451C377.128 594.941 374.75 605.674 372.262 619.158C370.957 632.635 368.477 648.18 365.818 664.849C363.191 681.314 360.388 698.878 358.371 716.628C354.317 752.304 351.159 788.127 349.599 816.549C348.817 830.805 348.461 842.792 348.551 851.787C348.596 856.302 348.751 859.66 348.953 861.961C349.008 862.577 349.059 863.035 349.099 863.355C350.168 866.483 351.074 869.344 351.898 871.944C353.221 876.118 354.333 879.625 355.563 882.492C356.857 885.508 360.562 886.024 363.093 883.933C365.394 882.032 367.946 879.842 370.744 877.357C384.653 865.002 401.794 847.897 419.32 829.638C436.731 811.497 454.011 792.755 468.134 777.338C470.709 774.527 473.217 771.784 475.627 769.149L475.78 768.981C481.999 762.18 487.548 756.11 491.86 751.481C493.814 749.382 495.332 746.908 496.133 744.154C496.344 743.43 496.565 742.646 496.798 741.797C499.064 733.54 501.648 721.896 504.435 707.528C509.977 678.95 515.853 642.042 521.254 605.209C525.227 578.118 528.911 551.295 531.979 528.214ZM493.777 751.003C493.777 751.003 493.882 750.826 494.07 750.371C493.867 750.759 493.777 751.003 493.777 751.003Z" fill="black" fill-opacity="0.05"/>
</svg>
