<svg width="18" height="18" viewBox="0 0 18 18" fill="none" xmlns="http://www.w3.org/2000/svg">
<path fill-rule="evenodd" clip-rule="evenodd" d="M0 1.28571C0 0.575634 0.575634 0 1.28571 0H6.42857C7.13865 0 7.71429 0.575634 7.71429 1.28571V6.42857C7.71429 7.13865 7.13865 7.71429 6.42857 7.71429H1.28571C0.575634 7.71429 0 7.13865 0 6.42857V1.28571ZM2.57143 5.14286V2.57143H5.14286V5.14286H2.57143Z" fill="black"/>
<path fill-rule="evenodd" clip-rule="evenodd" d="M0 11.5714C0 10.8613 0.575634 10.2857 1.28571 10.2857H6.42857C7.13865 10.2857 7.71429 10.8613 7.71429 11.5714V16.7143C7.71429 17.4244 7.13865 18 6.42857 18H1.28571C0.575634 18 0 17.4244 0 16.7143V11.5714ZM2.57143 15.4286V12.8571H5.14286V15.4286H2.57143Z" fill="black"/>
<path d="M10.2857 1.28571C10.2857 0.575634 10.8613 0 11.5714 0H16.7143C17.4244 0 18 0.575634 18 1.28571C18 1.99579 17.4244 2.57143 16.7143 2.57143H11.5714C10.8613 2.57143 10.2857 1.99579 10.2857 1.28571Z" fill="black"/>
<path d="M11.5714 5.14286C10.8613 5.14286 10.2857 5.71849 10.2857 6.42857C10.2857 7.13865 10.8613 7.71429 11.5714 7.71429H16.7143C17.4244 7.71429 18 7.13865 18 6.42857C18 5.71849 17.4244 5.14286 16.7143 5.14286H11.5714Z" fill="black"/>
<path d="M10.2857 11.5714C10.2857 10.8613 10.8613 10.2857 11.5714 10.2857H16.7143C17.4244 10.2857 18 10.8613 18 11.5714C18 12.2815 17.4244 12.8571 16.7143 12.8571H11.5714C10.8613 12.8571 10.2857 12.2815 10.2857 11.5714Z" fill="black"/>
<path d="M11.5714 15.4286C10.8613 15.4286 10.2857 16.0042 10.2857 16.7143C10.2857 17.4244 10.8613 18 11.5714 18H16.7143C17.4244 18 18 17.4244 18 16.7143C18 16.0042 17.4244 15.4286 16.7143 15.4286H11.5714Z" fill="black"/>
</svg>
