<svg width="16" height="18" viewBox="0 0 16 18" fill="none" xmlns="http://www.w3.org/2000/svg">
<path fill-rule="evenodd" clip-rule="evenodd" d="M12.375 14.625V16.3125C12.375 17.2445 11.6195 18 10.6875 18H1.6875C0.755519 18 0 17.2445 0 16.3125V5.0625C0 4.13052 0.75552 3.375 1.6875 3.375H3.375V1.125C3.375 0.50368 3.87868 0 4.5 0H11.443C12.0398 0 12.6121 0.237053 13.034 0.65901L15.091 2.71599C15.5129 3.13795 15.75 3.71024 15.75 4.30698V13.5C15.75 14.1213 15.2463 14.625 14.625 14.625H12.375ZM13.5 12.375V5.625H11.25C10.6287 5.625 10.125 5.12132 10.125 4.5V2.25H5.625V12.375H13.5ZM10.125 14.625V15.75H2.25V5.625H3.375V13.5C3.375 14.1213 3.87868 14.625 4.5 14.625H10.125Z" fill="black"/>
</svg>
