<svg width="17" height="18" viewBox="0 0 17 18" fill="none" xmlns="http://www.w3.org/2000/svg">
<path fill-rule="evenodd" clip-rule="evenodd" d="M3.85714 7.71429C5.98738 7.71429 7.71429 5.98738 7.71429 3.85714C7.71429 1.7269 5.98738 0 3.85714 0C1.7269 0 0 1.7269 0 3.85714C0 5.98738 1.7269 7.71429 3.85714 7.71429ZM3.85714 5.14286C4.56722 5.14286 5.14286 4.56722 5.14286 3.85714C5.14286 3.14706 4.56722 2.57143 3.85714 2.57143C3.14706 2.57143 2.57143 3.14706 2.57143 3.85714C2.57143 4.56722 3.14706 5.14286 3.85714 5.14286Z" fill="black"/>
<path fill-rule="evenodd" clip-rule="evenodd" d="M3.85714 18C5.98738 18 7.71429 16.2731 7.71429 14.1429C7.71429 12.0126 5.98738 10.2857 3.85714 10.2857C1.7269 10.2857 0 12.0126 0 14.1429C0 16.2731 1.7269 18 3.85714 18ZM3.85714 15.4286C4.56722 15.4286 5.14286 14.8529 5.14286 14.1429C5.14286 13.4328 4.56722 12.8571 3.85714 12.8571C3.14706 12.8571 2.57143 13.4328 2.57143 14.1429C2.57143 14.8529 3.14706 15.4286 3.85714 15.4286Z" fill="black"/>
<path fill-rule="evenodd" clip-rule="evenodd" d="M16.7143 9C16.7143 11.1302 14.9874 12.8571 12.8571 12.8571C10.7269 12.8571 9 11.1302 9 9C9 6.86976 10.7269 5.14286 12.8571 5.14286C14.9874 5.14286 16.7143 6.86976 16.7143 9ZM14.1429 9C14.1429 9.71008 13.5672 10.2857 12.8571 10.2857C12.1471 10.2857 11.5714 9.71008 11.5714 9C11.5714 8.28992 12.1471 7.71429 12.8571 7.71429C13.5672 7.71429 14.1429 8.28992 14.1429 9Z" fill="black"/>
</svg>
