<svg width="20" height="22" viewBox="0 0 20 22" fill="none" xmlns="http://www.w3.org/2000/svg">
<path d="M5.59994 10.1V6.5C5.59994 5.30653 6.07405 4.16193 6.91796 3.31802C7.76188 2.47411 8.90647 2 10.0999 2C11.2934 2 12.438 2.47411 13.2819 3.31802C14.1258 4.16193 14.5999 5.30653 14.5999 6.5V10.1M3.8 10.1H16.4C17.3941 10.1 18.2 10.9059 18.2 11.9V18.2C18.2 19.1941 17.3941 20 16.4 20H3.8C2.80589 20 2 19.1941 2 18.2V11.9C2 10.9059 2.80589 10.1 3.8 10.1Z" stroke="black" stroke-width="2.5" stroke-linecap="round" stroke-linejoin="round"/>
</svg>
