<svg width="1280" height="695" viewBox="0 0 1280 695" fill="none" xmlns="http://www.w3.org/2000/svg">
<path d="M241.463 420.105C147.456 392.104 128.456 452.604 70.4559 373.104C56.959 354.605 39.9636 343.305 3.96356 348.105C-41.0364 354.105 -49.4869 400.03 -22.5367 431.605C-5.03896 452.105 55.9559 451.105 23.9595 511.105C14.4864 528.869 -58.2244 496.605 -32.5367 533.605C21.9628 612.105 -22.5367 603.705 -22.5367 678.105C-22.5367 775.605 102.063 742.605 106.463 728.605C111.963 711.105 186.956 638.605 186.956 739.105C186.956 839.605 264.956 762.105 254.956 667.605C244.879 572.382 374.963 722.605 399.963 636.605C399.797 599.605 325.356 518.805 246.956 503.605C356.956 507.105 327.33 445.68 241.463 420.105Z" fill="#F0F0FF"/>
<path d="M206.475 361.615C221.966 264.757 159.503 253.816 230.753 185.936C247.332 170.139 256.317 151.814 246.859 116.749C235.037 72.9171 188.401 70.5334 160.615 101.374C142.574 121.398 151.527 181.741 87.864 157.85C69.0154 150.776 91.5128 74.4761 58.1823 104.774C-12.5326 169.053 -10.0129 123.838 -83.7764 133.549C-180.442 146.275 -131.461 265.502 -117.006 268.037C-98.9383 271.206 -17.2702 336.094 -116.91 349.211C-216.551 362.329 -129.533 429.546 -37.1464 407.297C55.947 384.878 -76.0115 533.457 12.5159 547.018C49.1776 542.023 119.57 457.673 124.406 377.959C135.294 487.475 192.326 450.085 206.475 361.615Z" fill="#BEFAE1"/>
<path d="M1287.46 488.105C1193.46 460.105 1174.46 520.605 1116.46 441.105C1102.96 422.605 1085.96 411.305 1049.96 416.105C1004.96 422.105 996.513 468.031 1023.46 499.605C1040.96 520.105 1101.96 519.105 1069.96 579.105C1060.49 596.869 987.776 564.605 1013.46 601.605C1067.96 680.105 1023.46 671.705 1023.46 746.105C1023.46 843.605 1148.06 810.605 1152.46 796.605C1157.96 779.105 1232.96 706.605 1232.96 807.105C1232.96 907.605 1310.96 830.105 1300.96 735.605C1290.88 640.382 1420.96 790.605 1445.96 704.605C1445.8 667.605 1371.36 586.805 1292.96 571.605C1402.96 575.105 1373.33 513.681 1287.46 488.105Z" fill="#FEEE85"/>
<path d="M1725.96 172.888C1527.85 141.907 1487.8 208.848 1365.57 120.884C1337.12 100.415 1301.31 87.9115 1225.44 93.2226C1130.6 99.8615 1112.79 150.677 1169.59 185.613C1206.47 208.295 1335.01 207.189 1267.58 273.577C1247.61 293.232 1094.38 257.533 1148.51 298.472C1263.37 385.33 1169.59 376.036 1169.59 458.357C1169.59 566.238 1432.18 529.725 1441.45 514.234C1453.05 494.871 1611.09 414.652 1611.09 525.852C1611.09 637.052 1775.47 551.301 1754.4 446.74C1733.16 341.378 2007.31 507.595 2060 412.439C2059.65 371.5 1902.77 282.097 1737.54 265.279C1969.36 269.151 1906.93 201.187 1725.96 172.888Z" fill="#BFABFF"/>
<path d="M1178.23 86.0299C1152.7 180.738 1213.68 198.148 1135.72 258.209C1117.58 272.186 1106.73 289.471 1112.47 325.333C1119.65 370.16 1165.78 377.406 1196.64 349.638C1216.67 331.61 1214.07 270.662 1274.89 301.077C1292.9 310.082 1262.55 383.612 1298.86 356.965C1375.91 300.429 1368.68 345.133 1443.05 343.186C1540.52 340.634 1504.27 216.94 1490.16 212.908C1472.52 207.868 1398.08 134.799 1498.55 132.168C1599.01 129.537 1519.5 53.5928 1425.29 66.0631C1330.36 78.6288 1477.13 -55.3429 1390.51 -78.0831C1353.52 -76.948 1274.7 -0.417664 1261.56 78.3534C1262.18 -31.7006 1201.55 -0.476867 1178.23 86.0299Z" fill="#FACDCD"/>
</svg>
