<svg width="1280" height="680" viewBox="0 0 1280 680" fill="none" xmlns="http://www.w3.org/2000/svg">
<path d="M1115.67 312.552L1131.67 374.585L1070 357.481L1115.67 312.552Z" fill="#8205B4"/>
<path d="M120.654 84.2842L167.862 127.593L106.824 146.838L120.654 84.2842Z" fill="#00FA05"/>
<path d="M96.7964 583.138L86.7378 646.408L37.0005 606.132L96.7964 583.138Z" fill="#BE0078"/>
<path d="M1197.46 298.503L1248.6 337.088L1189.69 362.095L1197.46 298.503Z" fill="#FF6905"/>
<path d="M-0.564352 330.567L38.8483 381.074L-24.5288 389.981L-0.564352 330.567Z" fill="#FF6905"/>
<path d="M1045 12L1077 67.5H1013L1045 12Z" fill="#00FAFA"/>
<circle cx="1099" cy="143" r="32" fill="#BEFF00"/>
<circle cx="79" cy="218" r="32" fill="#FA1ED2"/>
<circle cx="1179" cy="603" r="32" fill="#00FAFA"/>
<circle cx="99" cy="504" r="32" fill="#FA2828"/>
<circle cx="201" cy="456" r="32" fill="#1E69FF"/>
<rect x="1155.64" y="503.162" width="64" height="64" transform="rotate(-106 1155.64 503.162)" fill="#69FFC3"/>
<rect x="144.669" y="591.527" width="64" height="64" transform="rotate(-59 144.669 591.527)" fill="#69FFC3"/>
<rect x="105.311" y="301.846" width="64" height="64" transform="rotate(4 105.311 301.846)" fill="#FAFA19"/>
<rect x="1168.37" y="19.5757" width="64" height="64" transform="rotate(34 1168.37 19.5757)" fill="#FA2828"/>
<rect x="1153" y="207.692" width="64" height="64" transform="rotate(-66.5 1153 207.692)" fill="#41145F"/>
<rect x="1000" y="521.709" width="64" height="64" transform="rotate(-39.5 1000 521.709)" fill="#FF6905"/>
<rect x="7.78809" y="62" width="64" height="64" transform="rotate(34 7.78809 62)" fill="#FA2828"/>
<circle cx="145" cy="680" r="32" fill="#00FAFA"/>
<rect x="-43" y="682.692" width="64" height="64" transform="rotate(-66.5 -43 682.692)" fill="#41145F"/>
<circle cx="5" cy="494" r="32" fill="#BEFF00"/>
<rect x="216" y="658.709" width="64" height="64" transform="rotate(-39.5 216 658.709)" fill="#FF6905"/>
<rect x="171.641" y="250.162" width="64" height="64" transform="rotate(-106 171.641 250.162)" fill="#69FFC3"/>
<path d="M1108.52 638.623L1155.73 681.931L1094.69 701.176L1108.52 638.623Z" fill="#00FA05"/>
<circle cx="1275" cy="539" r="32" fill="#FA1ED2"/>
<circle cx="1275" cy="32" r="32" fill="#1E69FF"/>
<circle cx="1032" cy="667" r="32" fill="#FA2828"/>
<rect x="1067.46" y="218" width="64" height="64" transform="rotate(4 1067.46 218)" fill="#FAFA19"/>
<path d="M1046.97 393.204L1107.71 413.567L1059.78 455.975L1046.97 393.204Z" fill="#00FAFA"/>
<path d="M1304.8 404.138L1294.74 467.408L1245 427.132L1304.8 404.138Z" fill="#BE0078"/>
<path d="M1262.67 640.552L1278.67 702.585L1217 685.481L1262.67 640.552Z" fill="#8205B4"/>
<rect x="1239" y="262.859" width="64" height="64" transform="rotate(-59 1239 262.859)" fill="#69FFC3"/>
</svg>
